<svg width="25" height="24" viewBox="0 0 25 24" fill="none" xmlns="http://www.w3.org/2000/svg">
    <mask id="mask0_283_6036" style="mask-type:alpha" maskUnits="userSpaceOnUse" x="2" y="2" width="21" height="20">
        <path fill-rule="evenodd" clip-rule="evenodd" d="M2.63574 4.49945C2.63574 4.10163 2.78625 3.7201 3.05416 3.43879C3.32207 3.15749 3.68543 2.99945 4.06431 2.99945H21.2072C21.586 2.99945 21.9494 3.15749 22.2173 3.43879C22.4852 3.7201 22.6357 4.10163 22.6357 4.49945C22.6357 4.89728 22.4852 5.27881 22.2173 5.56011C21.9494 5.84142 21.586 5.99945 21.2072 5.99945H4.06431C3.68543 5.99945 3.32207 5.84142 3.05416 5.56011C2.78625 5.27881 2.63574 4.89728 2.63574 4.49945ZM5.78367 11.9995C5.78367 11.6016 5.93418 11.2201 6.20209 10.9388C6.46999 10.6575 6.83336 10.4995 7.21224 10.4995H18.1287C18.5076 10.4995 18.871 10.6575 19.1389 10.9388C19.4068 11.2201 19.5573 11.6016 19.5573 11.9995C19.5573 12.3973 19.4068 12.7788 19.1389 13.0601C18.871 13.3414 18.5076 13.4995 18.1287 13.4995H7.21224C6.83336 13.4995 6.46999 13.3414 6.20209 13.0601C5.93418 12.7788 5.78367 12.3973 5.78367 11.9995ZM9.45538 19.6978C9.45538 19.3 9.60589 18.9184 9.8738 18.6371C10.1417 18.3558 10.5051 18.1978 10.884 18.1978H14.4598C14.8387 18.1978 15.202 18.3558 15.4699 18.6371C15.7379 18.9184 15.8884 19.3 15.8884 19.6978C15.8884 20.0956 15.7379 20.4771 15.4699 20.7584C15.202 21.0397 14.8387 21.1978 14.4598 21.1978H10.884C10.5051 21.1978 10.1417 21.0397 9.8738 20.7584C9.60589 20.4771 9.45538 20.0956 9.45538 19.6978Z" fill="#1A937D"/>
    </mask>
    <g mask="url(#mask0_283_6036)">
        <path d="M0.639648 -0.00134277H24.6396V23.9987H0.639648V-0.00134277Z" fill="#1A937D"/>
    </g>
</svg>
