<svg width="25" height="24" viewBox="0 0 25 24" fill="none" xmlns="http://www.w3.org/2000/svg">
    <mask id="mask0_283_6037" style="mask-type:alpha" maskUnits="userSpaceOnUse" x="1" y="1" width="24" height="22">
        <path fill-rule="evenodd" clip-rule="evenodd" d="M5.89218 2.07459C6.36895 1.64115 7.09708 1.64115 7.57386 2.07459L11.9739 6.07459C12.4847 6.53897 12.5223 7.32953 12.0579 7.84035C11.5936 8.35117 10.803 8.38882 10.2922 7.92444L7.98302 5.8252V20.9995C7.98302 21.6899 7.42337 22.2495 6.73302 22.2495C6.04266 22.2495 5.48302 21.6899 5.48302 20.9995V5.8252L3.17386 7.92444C2.66304 8.38882 1.87248 8.35117 1.40809 7.84035C0.943708 7.32953 0.981354 6.53897 1.49218 6.07459L5.89218 2.07459ZM18.5385 1.74951C19.2288 1.74951 19.7885 2.30916 19.7885 2.99951V18.1738L22.0976 16.0746C22.6085 15.6102 23.399 15.6478 23.8634 16.1587C24.3278 16.6695 24.2901 17.4601 23.7793 17.9244L19.3793 21.9244C18.9026 22.3579 18.1744 22.3579 17.6976 21.9244L13.2976 17.9244C12.7868 17.4601 12.7492 16.6695 13.2136 16.1587C13.6779 15.6478 14.4685 15.6102 14.9793 16.0746L17.2885 18.1738V2.99951C17.2885 2.30916 17.8481 1.74951 18.5385 1.74951Z" fill="#1A937D"/>
    </mask>
    <g mask="url(#mask0_283_6037)">
        <rect x="0.639648" y="-0.000610352" width="24" height="24" fill="#1A937D"/>
    </g>
</svg>
